<?xml version="1.0" encoding="UTF-8" standalone="no"?>
<svg width="16px" height="16px" viewBox="0 0 16 16" version="1.1" xmlns="http://www.w3.org/2000/svg" xmlns:xlink="http://www.w3.org/1999/xlink">
    <!-- Generator: Sketch 3.8.3 (29802) - http://www.bohemiancoding.com/sketch -->
    <title>icon_picker_general</title>
    <desc>Created with Sketch.</desc>
    <defs></defs>
    <g id="icons" stroke="none" stroke-width="1" fill="none" fill-rule="evenodd" fill-opacity="0.54">
        <g id="icon_picker_general" fill="#000000">
            <path d="M13.6398202,2.34022472 C15.1489438,3.84934831 15.980015,5.85582022 15.980015,7.99005243 C15.980015,10.1242547 15.1488839,12.1306966 13.6398202,13.6398202 C12.1306667,15.1489139 10.1242247,15.980015 7.99002247,15.980015 C5.85582022,15.980015 3.84934831,15.1489139 2.34022472,13.6398202 C0.831101124,12.1306966 0,10.1242247 0,7.99005243 C0,5.85585019 0.831041199,3.84934831 2.34019476,2.34022472 C3.84934831,0.831101124 5.85582022,0 7.99002247,0 C10.1242247,0 12.1306667,0.831101124 13.6398202,2.34022472 L13.6398202,2.34022472 Z M12.933573,12.933603 C13.917633,11.9495431 14.5719551,10.7237453 14.8417678,9.39017228 C14.6314607,9.69971536 14.4303221,9.81459176 14.3057978,9.1216779 C14.1775281,7.992 13.1399251,8.71364794 12.4874307,8.31235955 C11.8007191,8.77519101 10.2573184,7.41252434 10.5196105,8.94945318 C10.9243146,9.64269663 12.7045094,8.02169288 11.8171985,9.4884794 C11.2511161,10.5124794 9.74723596,12.7801648 9.94289139,13.9556854 C9.96755056,15.6682846 8.1929588,14.312809 7.58154307,13.7447191 C7.17024719,12.6067715 7.44137828,10.6177678 6.36590262,10.0604644 C5.19859176,10.0097978 4.19667416,9.90370037 3.74426966,8.59871161 C3.47202996,7.66504869 4.03397753,6.27514607 5.03451685,6.06058427 C6.49908614,5.14040449 7.02226217,7.13818727 8.39580524,7.17534082 C8.82226217,6.72910861 9.98468914,6.58723596 10.0810787,6.08686142 C9.17986517,5.92782022 11.2244494,5.32907865 9.99481648,4.98852434 C9.31640449,5.06831461 8.87934082,5.69192509 9.23997004,6.22070412 C7.92539326,6.52722097 7.88329588,4.3183221 6.61962547,5.01507116 C6.58750562,6.11664419 4.55625468,5.37219476 5.91682397,5.14882397 C6.38429963,4.94459925 5.15433708,4.3527191 5.81881648,4.46028464 C6.14522846,4.44254682 7.24410487,4.05746816 6.94672659,3.79859176 C7.55859176,3.41875655 8.07280899,4.70822472 8.67173034,3.76922846 C9.10411985,3.04722097 8.490397,2.9139176 7.94840449,3.27988015 C7.64284644,2.93776779 8.48791011,2.1988015 9.23325843,1.87949064 C9.48164794,1.77306367 9.71889139,1.71508614 9.90031461,1.73150562 C10.2757753,2.16521348 10.9700674,2.24032959 11.006412,1.67934082 C10.0766442,1.23406742 9.05144569,0.998831461 7.99002247,0.998831461 C6.46657678,0.998831461 5.01764794,1.48296629 3.81854682,2.37818727 C4.14079401,2.52581273 4.32371536,2.70963296 4.01327341,2.94459925 C3.77207491,3.66331086 2.79340824,4.62807491 1.93426217,4.49147566 C1.48814981,5.26073408 1.19436704,6.10828464 1.06879401,6.99658427 C1.78837453,7.23466667 1.95430712,7.70585768 1.79970037,7.86346067 C1.43304869,8.18319101 1.20767041,8.63640449 1.09159551,9.13252434 C1.32581273,10.5656929 1.99940075,11.8865019 3.04650187,12.933633 C4.36692135,14.2540524 6.12254682,14.9812734 7.99002247,14.9812734 C9.8574382,14.9812734 11.6130936,14.2540524 12.933573,12.933603 L12.933573,12.933603 Z" id="Shape"></path>
        </g>
    </g>
</svg>