<?xml version="1.0" encoding="UTF-8" standalone="no"?>
<svg width="16px" height="16px" viewBox="0 0 16 16" version="1.1" xmlns="http://www.w3.org/2000/svg" xmlns:xlink="http://www.w3.org/1999/xlink">
    <!-- Generator: Sketch 3.8.3 (29802) - http://www.bohemiancoding.com/sketch -->
    <title>icon_picker_recent</title>
    <desc>Created with Sketch.</desc>
    <defs></defs>
    <g id="icons" stroke="none" stroke-width="1" fill="none" fill-rule="evenodd" fill-opacity="0.54">
        <g id="icon_picker_recent" fill="#000000">
            <path d="M9.14285714,1 C5.35619048,1 2.28571429,4.07047619 2.28571429,7.85714286 L0,7.85714286 L2.96380952,10.8209524 L3.01714286,10.927619 L6.0952381,7.85714286 L3.80952381,7.85714286 C3.80952381,4.90857143 6.19428571,2.52380952 9.14285714,2.52380952 C12.0914286,2.52380952 14.4761905,4.90857143 14.4761905,7.85714286 C14.4761905,10.8057143 12.0914286,13.1904762 9.14285714,13.1904762 C7.67238095,13.1904762 6.33904762,12.5885714 5.37904762,11.6209524 L4.29714286,12.7028571 C5.53904762,13.9447619 7.24571429,14.7142857 9.14285714,14.7142857 C12.9295238,14.7142857 16,11.6438095 16,7.85714286 C16,4.07047619 12.9295238,1 9.14285714,1 L9.14285714,1 Z M8.38095238,4.80952381 L8.38095238,8.61904762 L11.6419048,10.5542857 L12.1904762,9.63238095 L9.52380952,8.04761905 L9.52380952,4.80952381 L8.38095238,4.80952381 L8.38095238,4.80952381 Z" id="Shape"></path>
        </g>
    </g>
</svg>