<?xml version="1.0" encoding="iso-8859-1"?>
<!-- Generator: Adobe Illustrator 18.0.0, SVG Export Plug-In . SVG Version: 6.00 Build 0)  -->
<!DOCTYPE svg PUBLIC "-//W3C//DTD SVG 1.1//EN" "http://www.w3.org/Graphics/SVG/1.1/DTD/svg11.dtd">
<svg version="1.1" id="Capa_1" xmlns="http://www.w3.org/2000/svg" xmlns:xlink="http://www.w3.org/1999/xlink" x="0px" y="0px"
	 viewBox="0 0 324.803 324.803" style="enable-background:new 0 0 324.803 324.803;" xml:space="preserve">
<path d="M200.317,88.717l35.109-15.932L234.842,0l-61.717,28.011l0.406,50.227c-1.852-0.302-3.731-0.521-5.629-0.671V12.56h-11
	v65.007c-1.898,0.151-3.777,0.369-5.629,0.671l0.405-50.227L89.96,0l-0.583,72.785l35.109,15.932
	c-18.715,12.356-31.095,33.565-31.095,57.621v109.455c0,38.052,30.958,69.01,69.011,69.01s69.011-30.958,69.011-69.01V146.338
	C231.413,122.282,219.032,101.073,200.317,88.717z M184.182,35.072l39.797-18.062l0.39,48.711L187.949,82.25
	c-1.118-0.447-2.25-0.865-3.395-1.254L184.182,35.072z M100.434,65.722l0.39-48.711l39.797,18.062l-0.371,45.923
	c-1.146,0.39-2.278,0.807-3.396,1.255L100.434,65.722z M162.402,88.327c26.346,0,48.632,17.661,55.678,41.761H106.724
	C113.77,105.988,136.055,88.327,162.402,88.327z M219.947,263.018H104.857c-0.296-2.369-0.466-4.777-0.466-7.225v-72.282h116.021
	v72.282C220.413,258.241,220.242,260.648,219.947,263.018z M104.391,172.511v-10.213h116.021v10.213H104.391z M104.391,151.297
	v-4.959c0-1.771,0.093-3.519,0.249-5.25h115.524c0.156,1.731,0.249,3.479,0.249,5.25v4.959H104.391z M162.402,313.803
	c-25.621,0-47.401-16.702-55.061-39.785h110.123C209.803,297.1,188.023,313.803,162.402,313.803z"/>
<g>
</g>
<g>
</g>
<g>
</g>
<g>
</g>
<g>
</g>
<g>
</g>
<g>
</g>
<g>
</g>
<g>
</g>
<g>
</g>
<g>
</g>
<g>
</g>
<g>
</g>
<g>
</g>
<g>
</g>
</svg>
