<svg xmlns="http://www.w3.org/2000/svg" xmlns:xlink="http://www.w3.org/1999/xlink" version="1.1" x="0px" y="0px" viewBox="0 0 90 112.5" enable-background="new 0 0 90 90" xml:space="preserve"><g><path d="M27.9,88.8L27.9,88.8c-1.5,0-3-0.7-3.9-2l-8.6-12.1c-0.1-0.2-0.2-0.3-0.4-0.4L3,65.8c-1.1-0.8-1.9-2.1-2-3.4   c-0.1-1.4,0.4-2.7,1.4-3.7l3.2-3.2c1.1-1.1,2.7-1.6,4.3-1.3l11.8,2.4c0,0,0,0,0,0l8.6-8.6c0.3-0.3,0.5-0.8,0.5-1.3   c0-0.5-0.3-0.9-0.6-1.2L3.6,23.9c-1-0.8-1.7-2.1-1.8-3.4c-0.1-1.3,0.4-2.6,1.4-3.6l4.5-4.5c1.2-1.2,3.1-1.7,4.8-1.1l41,13.3   L74.5,3.7c1.6-1.6,3.7-2.5,6-2.5c2.3,0,4.4,0.9,6,2.5c3.3,3.3,3.3,8.7,0,12L65.6,36.6l13.3,41c0.6,1.7,0.1,3.5-1.1,4.8L73.2,87   c-0.9,0.9-2.1,1.4-3.3,1.4c-1.4,0-2.8-0.6-3.7-1.8L44.9,60c-0.6-0.8-1.9-0.8-2.6-0.1l-8.6,8.6c-0.1,0.1-0.2,0.2-0.3,0.3L35.7,80   c0.3,1.5-0.2,3.1-1.3,4.3l-3.2,3.2C30.3,88.3,29.1,88.8,27.9,88.8z M8.9,57c-0.5,0-0.9,0.2-1.2,0.5l-3.2,3.2   C4.1,61.1,4,61.6,4,62.1c0,0.5,0.3,1,0.7,1.3l12.1,8.5c0.4,0.3,0.8,0.7,1.1,1.1l8.5,12.1c0.3,0.5,0.8,0.7,1.4,0.7l0,0   c0.5,0,0.9-0.2,1.2-0.5l3.2-3.2c0.4-0.4,0.6-1,0.5-1.5l-2.4-12.2c-0.1-0.6,0.1-1.2,0.6-1.5c0.3-0.2,0.5-0.4,0.7-0.6l8.6-8.6   c0.9-0.9,2.1-1.4,3.3-1.4c1.4,0,2.8,0.6,3.7,1.8l21.3,26.6c0.6,0.8,1.9,0.8,2.6,0.1l4.5-4.5c0.5-0.5,0.6-1.1,0.4-1.7L62.4,36.7   c-0.2-0.5,0-1.2,0.4-1.6l21.6-21.6c2.1-2.1,2.1-5.6,0-7.8c-1-1-2.4-1.6-3.9-1.6c-1.5,0-2.8,0.6-3.9,1.6L55.1,27.3   c-0.4,0.4-1.1,0.6-1.6,0.4L11.6,14.1c-0.6-0.2-1.3,0-1.7,0.4l-4.5,4.5c-0.3,0.3-0.5,0.8-0.5,1.3s0.3,0.9,0.6,1.2l26.6,21.3   c1,0.8,1.7,2.1,1.8,3.4c0.1,1.3-0.4,2.6-1.4,3.6l-8.6,8.6c-0.2,0.2-0.3,0.3-0.4,0.5c-0.4,0.4-0.9,0.7-1.5,0.5L9.3,57.1   C9.2,57,9.1,57,8.9,57z"/></g></svg>
