<svg xmlns="http://www.w3.org/2000/svg" xmlns:xlink="http://www.w3.org/1999/xlink" version="1.1" x="0px" y="0px" viewBox="0 0 100 108.6125" enable-background="new 0 0 100 86.89" xml:space="preserve"><path d="M50,29.332c-10.807,0-19.568,8.761-19.568,19.569S39.192,68.469,50,68.469s19.569-8.761,19.569-19.568  S60.807,29.332,50,29.332z M50,51.719c-1.557,0-2.818-1.262-2.818-2.818s1.262-2.818,2.818-2.818s2.819,1.262,2.819,2.818  S51.556,51.719,50,51.719z"/><path d="M74.869,56.585c0-1.552-1.259-2.811-2.811-2.811s-2.81,1.259-2.81,2.811c0,1.096,0.628,2.043,1.544,2.506  c-0.854,6.628-5.201,12.175-11.133,14.729v-4.312H40.339v12.385H59.66v-6.054c6.902-2.656,12.014-8.94,12.989-16.506  C73.918,59.061,74.869,57.934,74.869,56.585z"/><g><path d="M50,23.192c-0.775,0-1.404-0.628-1.404-1.404V6.402c0-0.775,0.629-1.404,1.404-1.404c0.776,0,1.404,0.629,1.404,1.404   v15.386C51.404,22.564,50.775,23.192,50,23.192z"/></g><g><path d="M35.723,27.073c-0.481,0-0.951-0.248-1.212-0.694l-7.788-13.27c-0.393-0.669-0.168-1.529,0.5-1.922   c0.669-0.393,1.529-0.169,1.922,0.5l7.788,13.27c0.393,0.669,0.168,1.529-0.5,1.922C36.209,27.011,35.964,27.073,35.723,27.073z"/></g><g><path d="M25.469,37.472c-0.235,0-0.474-0.06-0.692-0.184L11.398,29.69c-0.674-0.383-0.911-1.24-0.527-1.915   c0.383-0.674,1.24-0.91,1.915-0.527l13.379,7.599c0.674,0.383,0.911,1.24,0.527,1.915C26.433,37.216,25.958,37.472,25.469,37.472z"/></g><g><path d="M21.791,51.402H6.404C5.628,51.402,5,50.773,5,49.998s0.628-1.404,1.404-1.404h15.386c0.775,0,1.404,0.629,1.404,1.404   S22.566,51.402,21.791,51.402z"/></g><g><g><path d="M12.402,73.468c-0.482,0-0.951-0.249-1.212-0.694c-0.393-0.669-0.169-1.529,0.5-1.922l13.27-7.787    c0.669-0.393,1.529-0.169,1.922,0.5s0.168,1.529-0.5,1.922l-13.27,7.788C12.888,73.406,12.644,73.468,12.402,73.468z"/></g></g><g><path d="M93.596,51.402H78.209c-0.775,0-1.404-0.629-1.404-1.404c0-0.776,0.629-1.404,1.404-1.404h15.387   c0.775,0,1.404,0.628,1.404,1.404C95,50.773,94.371,51.402,93.596,51.402z"/></g><g><path d="M74.33,37.124c-0.482,0-0.951-0.248-1.213-0.693c-0.393-0.669-0.169-1.53,0.5-1.922l13.271-7.788   c0.669-0.393,1.529-0.169,1.922,0.5c0.393,0.668,0.169,1.529-0.5,1.922L75.039,36.93C74.815,37.062,74.571,37.124,74.33,37.124z"/></g><g><path d="M63.929,26.873c-0.235,0-0.474-0.059-0.692-0.183c-0.675-0.383-0.911-1.241-0.527-1.915l7.599-13.379   c0.383-0.675,1.24-0.911,1.914-0.527c0.675,0.383,0.911,1.24,0.528,1.915l-7.599,13.379C64.893,26.617,64.418,26.873,63.929,26.873   z"/></g></svg>
