<?xml version="1.0" encoding="iso-8859-1"?>
<!-- Generator: Adobe Illustrator 18.0.0, SVG Export Plug-In . SVG Version: 6.00 Build 0)  -->
<!DOCTYPE svg PUBLIC "-//W3C//DTD SVG 1.1//EN" "http://www.w3.org/Graphics/SVG/1.1/DTD/svg11.dtd">
<svg version="1.1" id="Capa_1" xmlns="http://www.w3.org/2000/svg" xmlns:xlink="http://www.w3.org/1999/xlink" x="0px" y="0px"
	 viewBox="0 0 432.771 432.771" style="enable-background:new 0 0 432.771 432.771;" xml:space="preserve">
<g>
	<path d="M432.771,216.705l-57.009-49.475H243.042l-23.912-31.874h-81.011l-7.543,10.061H32.722v11h89.606l-8.108,10.813h-41.8
		l-22.36,24.481H0l57.759,58.87c-0.069,1.006-0.117,2.018-0.117,3.042c0,24.147,19.645,43.792,43.792,43.792
		c21.529,0,39.465-15.619,43.105-36.118c3.64,20.499,21.576,36.118,43.105,36.118s39.465-15.62,43.104-36.121
		c3.639,20.5,21.576,36.121,43.104,36.121s39.465-15.619,43.105-36.118c3.64,20.499,21.576,36.118,43.105,36.118
		c24.147,0,43.792-19.645,43.792-43.792c0-4.867-0.81-9.546-2.282-13.923L432.771,216.705z M261.406,178.23h43.283v11.943h-43.283
		V178.23z M315.689,178.23h43.291v11.943h-43.291V178.23z M143.619,146.356h70.011l15.66,20.874H127.969L143.619,146.356z
		 M26.203,202.711h28.708l22.36-24.481h173.135v22.943H369.98V178.23h1.675l43.526,37.773l-18.504,13.639
		c-7.833-11.92-21.316-19.811-36.615-19.811c-21.529,0-39.465,15.619-43.105,36.118c-3.64-20.499-21.576-36.118-43.105-36.118
		s-39.465,15.62-43.104,36.121c-3.639-20.5-21.576-36.121-43.104-36.121s-39.465,15.619-43.105,36.118
		c-3.64-20.499-21.576-36.118-43.105-36.118c-18.564,0-34.455,11.616-40.817,27.957L26.203,202.711z M101.434,286.416
		c-18.082,0-32.792-14.71-32.792-32.792s14.71-32.792,32.792-32.792s32.792,14.71,32.792,32.792S119.516,286.416,101.434,286.416z
		 M187.644,286.416c-18.082,0-32.792-14.71-32.792-32.792s14.71-32.792,32.792-32.792c18.081,0,32.791,14.71,32.791,32.792
		S205.725,286.416,187.644,286.416z M273.853,286.416c-18.081,0-32.791-14.71-32.791-32.792s14.71-32.792,32.791-32.792
		c18.082,0,32.792,14.71,32.792,32.792S291.935,286.416,273.853,286.416z M360.063,286.416c-18.082,0-32.792-14.71-32.792-32.792
		s14.71-32.792,32.792-32.792s32.792,14.71,32.792,32.792S378.145,286.416,360.063,286.416z"/>
	<path d="M101.434,234.821c-10.368,0-18.803,8.435-18.803,18.803s8.435,18.803,18.803,18.803s18.803-8.435,18.803-18.803
		S111.802,234.821,101.434,234.821z M101.434,261.426c-4.303,0-7.803-3.5-7.803-7.803s3.5-7.803,7.803-7.803s7.803,3.5,7.803,7.803
		S105.736,261.426,101.434,261.426z"/>
	<path d="M187.644,234.821c-10.368,0-18.803,8.435-18.803,18.803s8.435,18.803,18.803,18.803c10.367,0,18.802-8.435,18.802-18.803
		S198.011,234.821,187.644,234.821z M187.644,261.426c-4.303,0-7.803-3.5-7.803-7.803s3.5-7.803,7.803-7.803
		c4.302,0,7.802,3.5,7.802,7.803S191.945,261.426,187.644,261.426z"/>
	<path d="M273.853,234.821c-10.367,0-18.802,8.435-18.802,18.803s8.435,18.803,18.802,18.803c10.368,0,18.803-8.435,18.803-18.803
		S284.221,234.821,273.853,234.821z M273.853,261.426c-4.302,0-7.802-3.5-7.802-7.803s3.5-7.803,7.802-7.803
		c4.303,0,7.803,3.5,7.803,7.803S278.155,261.426,273.853,261.426z"/>
	<path d="M360.063,234.821c-10.368,0-18.803,8.435-18.803,18.803s8.435,18.803,18.803,18.803s18.803-8.435,18.803-18.803
		S370.431,234.821,360.063,234.821z M360.063,261.426c-4.303,0-7.803-3.5-7.803-7.803s3.5-7.803,7.803-7.803s7.803,3.5,7.803,7.803
		S364.365,261.426,360.063,261.426z"/>
	<path d="M84.434,201.173h34c3.037,0,5.5-2.463,5.5-5.5s-2.463-5.5-5.5-5.5h-34c-3.037,0-5.5,2.463-5.5,5.5
		S81.396,201.173,84.434,201.173z"/>
	<path d="M170.644,201.173h34c3.037,0,5.5-2.463,5.5-5.5s-2.463-5.5-5.5-5.5h-34c-3.037,0-5.5,2.463-5.5,5.5
		S167.606,201.173,170.644,201.173z"/>
</g>
<g>
</g>
<g>
</g>
<g>
</g>
<g>
</g>
<g>
</g>
<g>
</g>
<g>
</g>
<g>
</g>
<g>
</g>
<g>
</g>
<g>
</g>
<g>
</g>
<g>
</g>
<g>
</g>
<g>
</g>
</svg>
