<?xml version="1.0" encoding="iso-8859-1"?>
<!-- Generator: Adobe Illustrator 18.0.0, SVG Export Plug-In . SVG Version: 6.00 Build 0)  -->
<!DOCTYPE svg PUBLIC "-//W3C//DTD SVG 1.1//EN" "http://www.w3.org/Graphics/SVG/1.1/DTD/svg11.dtd">
<svg version="1.1" id="Capa_1" xmlns="http://www.w3.org/2000/svg" xmlns:xlink="http://www.w3.org/1999/xlink" x="0px" y="0px"
	 viewBox="0 0 423.795 423.795" style="enable-background:new 0 0 423.795 423.795;" xml:space="preserve">
<path d="M348.731,359.831v-49.964l-2.029-1.65c-0.249-0.203-25.175-20.512-49.75-43.535c-27.566-25.823-39.469-40.758-44.545-49.133
	c5.905,2.387,12.185,5.201,15.176,6.59l7.815,3.628v-25.995l-17.729-20.548c-7.892-9.147-13.538-20.196-16.33-31.951
	c-4.628-19.483-7.112-39.298-7.385-58.893c-0.018-1.287-0.043-5.786-0.076-11.788c-0.037-6.449-0.083-14.627-0.14-22.432
	c-0.131-17.759-6.371-35.128-17.572-48.908L211.897,0l-4.268,5.25c-11.2,13.78-17.441,31.149-17.572,48.909
	c-0.057,7.792-0.103,15.957-0.14,22.401c-0.034,6.017-0.059,10.529-0.077,11.818c-0.272,19.595-2.756,39.409-7.383,58.893
	c-2.792,11.755-8.439,22.804-16.332,31.951l-17.729,20.548v25.995l7.816-3.628c2.991-1.389,9.271-4.203,15.175-6.59
	c-5.077,8.375-16.979,23.31-44.545,49.133c-24.575,23.022-49.501,43.332-49.75,43.535l-2.03,1.65v49.964l95.333-28v11.789
	l-52.128,54.872l16.267,25.304l48.262-7.425l16.97-13.055h6.629v18.5h11v-18.5h6.844l16.738,13.052l48.279,7.428l16.267-25.304
	l-52.127-54.872v-11.79L348.731,359.831z M289.471,272.747c20.771,19.456,41.774,36.983,48.26,42.336v30.052l-67.633-19.864v-71.41
	C275.592,259.481,281.996,265.745,289.471,272.747z M200.857,86.649h22.081c0.006,0.864,0.012,1.51,0.018,1.881
	c0.069,4.935,0.278,9.884,0.615,14.837c-3.5-2.081-7.494-3.215-11.672-3.215c-0.03,0-0.061,0-0.091,0
	c-4.228,0.016-8.188,1.217-11.587,3.287c0.34-4.977,0.55-9.95,0.619-14.909C200.845,88.159,200.851,87.513,200.857,86.649z
	 M199.979,123.586c0-6.83,5.325-12.408,11.871-12.433c0.016,0,0.031,0,0.047,0c3.186,0,6.18,1.24,8.436,3.495
	c2.245,2.246,3.482,5.237,3.482,8.423v30.508c-3.475-2.124-7.556-3.35-11.918-3.35c-4.362,0-8.443,1.226-11.918,3.35V123.586z
	 M211.898,18.066c6.937,10.73,10.745,23.333,10.84,36.173c0.055,7.406,0.099,15.13,0.134,21.41h-21.948
	c0.036-6.279,0.08-14.004,0.134-21.41C201.152,41.399,204.961,28.796,211.898,18.066z M86.064,315.083
	c6.486-5.353,27.489-22.88,48.26-42.336c7.476-7.002,13.88-13.266,19.374-18.887v71.41l-67.633,19.864V315.083z M178.331,405.928
	l-38.405,5.908l-7.733-12.029l49.205-51.795v-30.876l-16.7,4.905v-79.906c18.611-20.83,21.367-30.177,21.367-35.651v-7.044
	l-6.834,1.708c-5.001,1.25-13.556,4.78-19.833,7.513v-4.799l15.058-17.453c6.076-7.043,10.984-15.073,14.524-23.668v10.313
	c0,0.032-0.002,0.064-0.002,0.096h0.002v224.588L178.331,405.928z M206.397,331.816v60.5h-6.418V173.101
	c0.026-6.551,5.362-11.873,11.918-11.873c6.56,0,11.897,5.327,11.918,11.882v219.206h-6.419v-60.5H206.397z M291.603,399.807
	l-7.733,12.029l-38.387-5.905l-10.667-8.318V173.149h0.002c0-0.026-0.002-0.051-0.002-0.077v-10.331
	c3.54,8.595,8.448,16.625,14.524,23.668l15.058,17.453v4.799c-6.277-2.732-14.831-6.262-19.833-7.513l-6.834-1.708v7.044
	c0,5.474,2.755,14.821,21.367,35.652v79.905l-16.7-4.905v30.876L291.603,399.807z"/>
<g>
</g>
<g>
</g>
<g>
</g>
<g>
</g>
<g>
</g>
<g>
</g>
<g>
</g>
<g>
</g>
<g>
</g>
<g>
</g>
<g>
</g>
<g>
</g>
<g>
</g>
<g>
</g>
<g>
</g>
</svg>
