<svg xmlns="http://www.w3.org/2000/svg" xmlns:xlink="http://www.w3.org/1999/xlink" version="1.0" x="0px" y="0px" viewBox="0 0 100 125" enable-background="new 0 0 100 100" xml:space="preserve"><g><path d="M38.7,40.6c-0.3,0.1-0.5,0.3-0.5,0.6v2h-7.1c-0.3,0-0.6,0.3-0.6,0.6l0,2h17.3c0.3,0,0.6,0.3,0.6,0.6v4.2   l13.9-0.1v-5.8L47,44.5l-8-3.9C38.9,40.6,38.8,40.6,38.7,40.6L38.7,40.6z M63.4,44.7v5.8h0.1h0.9v-5.8h-0.1c0,0,0,0,0,0H63.4   L63.4,44.7z M65.7,44.8v5.7l18.8,0.1c0.1,0,0.2,0,0.2,0c1.3,0,2.3-1,2.3-2.2c0-1.3-1-2.3-2.3-2.3c0,0-0.1,0-0.1,0   c-0.1,0-0.1,0-0.2,0h0L65.7,44.8L65.7,44.8z M30.4,47l-4,0.7h-0.1l-12.8,1.1c-0.3,0-0.6,0.4-0.6,0.7l1.2,9.4c0,0.4,0.5,0.6,0.8,0.5   l18.6-7.9c-0.1,0.2-0.1,0.4-0.1,0.6c0,1.5,1.2,2.8,2.6,2.8s2.6-1.3,2.6-2.8c0-0.5-0.2-1-0.4-1.5h8.7h0h0.2V47H30.4z M50.1,47.2   C50.1,47.2,50.1,47.2,50.1,47.2L50.1,47.2c0.1,0,0.1,0,0.1,0h10.5c0.3,0,0.6,0.3,0.6,0.6c0,0.3-0.3,0.6-0.6,0.6H50.2   c-0.3,0-0.6-0.2-0.7-0.5C49.6,47.5,49.8,47.2,50.1,47.2L50.1,47.2z M85.4,47.4c0.3,0.2,0.5,0.5,0.5,0.8c0,0.4-0.2,0.7-0.5,0.8v-0.8   L85.4,47.4L85.4,47.4z M36.1,50.7c0.8,0,1.4,0.6,1.4,1.4c0,0.8-0.6,1.6-1.4,1.6s-1.4-0.7-1.4-1.6C34.7,51.3,35.3,50.7,36.1,50.7   L36.1,50.7z"/></g></svg>
