<?xml version="1.0" encoding="iso-8859-1"?>
<!-- Generator: Adobe Illustrator 16.0.0, SVG Export Plug-In . SVG Version: 6.00 Build 0)  -->
<!DOCTYPE svg PUBLIC "-//W3C//DTD SVG 1.1//EN" "http://www.w3.org/Graphics/SVG/1.1/DTD/svg11.dtd">
<svg version="1.1" id="Capa_1" xmlns="http://www.w3.org/2000/svg" xmlns:xlink="http://www.w3.org/1999/xlink" x="0px" y="0px"
	 width="499.914px" height="499.914px" viewBox="0 0 499.914 499.914" style="enable-background:new 0 0 499.914 499.914;"
	 xml:space="preserve">
<g>
	<path d="M249.957,0C111.91,0,0,111.91,0,249.957s111.91,249.957,249.957,249.957s249.957-111.91,249.957-249.957
		S388.004,0,249.957,0z M384.818,87.005c18.848,16.468,34.796,35.888,47.401,57.721c12.605,21.835,21.451,45.358,26.287,69.916
		l-56.012,11.032c-3.621-18.386-10.254-36.016-19.715-52.403c-9.463-16.385-21.414-30.947-35.525-43.274L384.818,87.005z
		 M249.957,39.496c25.211,0,50.005,4.102,73.689,12.192l-18.45,54.024c-17.732-6.056-36.317-9.127-55.239-9.127
		s-37.507,3.072-55.238,9.127l-18.452-54.024C199.951,43.598,224.746,39.496,249.957,39.496z M115.096,412.909
		c-18.848-16.467-34.797-35.888-47.402-57.722c-12.607-21.834-21.453-45.356-26.287-69.914l56.012-11.032
		c3.621,18.385,10.254,36.015,19.715,52.401c9.463,16.387,21.414,30.947,35.523,43.274L115.096,412.909z M117.133,173.271
		c-9.461,16.387-16.094,34.017-19.715,52.402L41.406,214.64c4.834-24.556,13.68-48.078,26.285-69.913
		c12.607-21.835,28.557-41.255,47.404-57.723l37.561,42.993C138.547,142.324,126.594,156.885,117.133,173.271z M249.959,460.418
		c-25.215,0-50.008-4.102-73.692-12.192l18.452-54.022c17.731,6.057,36.316,9.127,55.238,9.127
		c18.922-0.001,37.507-3.072,55.239-9.127l18.45,54.025C299.965,456.315,275.172,460.417,249.959,460.418z M249.957,325.342
		c0,0-85.082-41.445-85.082-105.987c0-24.733,20.05-44.783,44.783-44.783c17.723,0,33.039,10.295,40.299,25.229
		c7.26-14.935,22.576-25.229,40.299-25.229c24.732,0,44.783,20.05,44.783,44.783C335.039,283.896,249.957,325.342,249.957,325.342z
		 M432.223,355.186c-12.604,21.836-28.557,41.257-47.403,57.725l-37.563-42.993c14.111-12.328,26.065-26.888,35.525-43.274
		c9.461-16.387,16.094-34.018,19.715-52.401l56.012,11.032C453.67,309.83,444.826,333.352,432.223,355.186z"/>
</g>
<g>
</g>
<g>
</g>
<g>
</g>
<g>
</g>
<g>
</g>
<g>
</g>
<g>
</g>
<g>
</g>
<g>
</g>
<g>
</g>
<g>
</g>
<g>
</g>
<g>
</g>
<g>
</g>
<g>
</g>
</svg>
