<svg xmlns="http://www.w3.org/2000/svg" xmlns:xlink="http://www.w3.org/1999/xlink" version="1.1" x="0px" y="0px" viewBox="0 0 100 125" enable-background="new 0 0 100 100" xml:space="preserve"><g><path d="M47.793,62h-0.584c-1.105,0-2,0.895-2,2s0.895,2,2,2h0.584c1.105,0,2-0.895,2-2S48.898,62,47.793,62z"/><path d="M50,8C26.842,8,8,26.841,8,50c0,23.158,18.842,42,42,42s42-18.842,42-42C92,26.841,73.158,8,50,8z M50,12   c20.953,0,38,17.047,38,38c0,8.533-2.861,16.057-7.629,22.406C80.246,72.383,80.133,72,80,72H68V46h4.668c0.014,0,0.029,0,0.039,0   c1.105,0,2-0.562,2-1.667c0-0.73-0.391-1.203-0.977-1.552L68,38.135V22.666C68,21.562,67.105,20,66,20h-8c-1.105,0-2,1.562-2,2.666   v5.39l-5.545-4.657c-0.746-0.625-1.828-0.625-2.574,0l-23.5,19.736c-0.643,0.54-0.879,1.093-0.592,1.883S24.828,46,25.668,46H30v26   H20c-0.133,0-0.246,0.383-0.371,0.406C14.861,66.057,12,58.367,12,49.834C12,28.881,29.047,12,50,12z M44,72V56h12v16H44z M58,52   H42c-1.105,0-2,1.561-2,2.666V72h-6V46h30v26h-4V54.666C60,53.561,59.105,52,58,52z M31.16,42l18.008-15.125L67.176,42H66H32H31.16   z M64,34.774l-4.129-3.468C59.941,31.104,60,30.894,60,30.666V24h4V34.774z M50,87.334C39.43,87.334,29.863,83,22.969,76H32h34   h11.031C70.137,83,60.57,87.334,50,87.334z"/></g></svg>
