<?xml version="1.0" encoding="iso-8859-1"?>
<!-- Generator: Adobe Illustrator 18.0.0, SVG Export Plug-In . SVG Version: 6.00 Build 0)  -->
<!DOCTYPE svg PUBLIC "-//W3C//DTD SVG 1.1//EN" "http://www.w3.org/Graphics/SVG/1.1/DTD/svg11.dtd">
<svg version="1.1" id="Capa_1" xmlns="http://www.w3.org/2000/svg" xmlns:xlink="http://www.w3.org/1999/xlink" x="0px" y="0px"
	 viewBox="0 0 278.073 278.073" style="enable-background:new 0 0 278.073 278.073;" xml:space="preserve">
<g>
	<path d="M230.504,213.736l-8.189-74.552c-2.248-20.466-14.89-37.427-32.321-45.88l6.868-6.868
		c9.556-9.566,14.819-22.283,14.819-35.807c0-13.528-5.264-26.241-14.821-35.799C187.296,5.267,174.579,0,161.051,0
		c-13.533,0-26.247,5.268-35.798,14.83c-16.149,16.139-19.16,40.887-8.56,60.198c-7.856,0.964-15.502,3.539-22.514,7.699
		c-13.324,7.904-22.772,20.523-26.603,35.532l-18.551,72.673c-1.201,4.718-1.81,9.556-1.81,14.377
		c0,26.507,17.953,49.604,43.661,56.169c4.757,1.213,9.588,1.813,14.395,1.813c8.171,0,16.265-1.741,23.792-5.148
		c10.664,12.272,26.357,19.928,43.722,19.928c2.123,0,4.275-0.118,6.398-0.351c15.4-1.691,29.219-9.279,38.912-21.364
		C227.789,244.272,232.195,229.136,230.504,213.736z M133.032,22.607C140.508,15.122,150.459,11,161.051,11
		c10.59,0,20.545,4.123,28.031,11.609c7.48,7.479,11.599,17.431,11.599,28.021c0,10.588-4.12,20.543-11.599,28.031l-10.521,10.521
		c-4.441-1.087-9.074-1.669-13.835-1.669c-1.421,0-2.852,0.072-4.282,0.177c-6.496-5.298-14.157-9.189-22.329-11.278
		c-2.783-0.711-5.587-1.21-8.393-1.505C117.607,59.306,118.889,36.742,133.032,22.607z M93.596,250.821
		c-20.832-5.32-35.381-24.035-35.381-45.511c0-3.907,0.495-7.831,1.469-11.66l18.55-72.67c3.104-12.162,10.76-22.387,21.557-28.792
		c10.797-6.406,23.44-8.224,35.602-5.119c3.497,0.894,6.813,2.163,9.942,3.774c-3.423,1.21-6.686,2.725-9.763,4.516
		c-0.749-0.51-1.587-0.913-2.517-1.149c-4.28-1.09-8.64,1.49-9.73,5.77c-0.408,1.608-0.296,3.224,0.224,4.676
		c-1.594,1.607-3.092,3.305-4.489,5.084c-3.461-2.354-6.404-5.416-8.635-9.029l-2.784-4.51l-4.61,2.615
		c-9.769,5.542-16.678,14.596-19.456,25.493l-17.541,68.702c-2.708,10.618-1.12,21.648,4.467,31.051
		c5.579,9.422,14.501,16.101,25.124,18.807c3.358,0.856,6.773,1.28,10.173,1.28c4.522,0,9.01-0.768,13.299-2.247
		c0.989,2.445,2.139,4.803,3.434,7.063C113.369,252.612,103.293,253.293,93.596,250.821z M108.95,129.418
		c-2.337,0.125-4.421,1.747-5.031,4.134l-18.055,70.732c-0.751,2.943,1.025,5.938,3.969,6.689c0.457,0.117,0.914,0.172,1.364,0.172
		c2.454,0,4.69-1.654,5.325-4.141l11.566-45.312l7.107,64.708c0.184,1.679,0.448,3.332,0.769,4.961
		c-5.616,2.036-11.74,2.349-17.623,0.848c-7.771-1.979-14.296-6.864-18.379-13.759c-4.089-6.883-5.25-14.953-3.27-22.721
		l17.541-68.702c1.622-6.364,5.168-11.867,10.167-15.89c2.512,3.031,5.449,5.666,8.712,7.852
		C111.401,122.305,110.003,125.795,108.95,129.418z M177.982,266.787c-1.725,0.189-3.474,0.286-5.197,0.286
		c-23.975,0-44.032-18.001-46.654-41.873l-8.188-74.552c-1.371-12.479,2.2-24.745,10.055-34.538
		c7.855-9.793,19.053-15.942,31.533-17.313c1.725-0.189,3.473-0.286,5.196-0.286c1.451,0,2.887,0.069,4.306,0.198l-7.582,7.582
		c-0.522-0.047-1.057-0.044-1.599,0.015c-4.392,0.482-7.561,4.434-7.079,8.826c0.482,4.392,4.434,7.561,8.826,7.079
		c3.986-0.438,6.954-3.735,7.111-7.623l12.934-12.934c15.938,6.156,27.766,20.782,29.737,38.73l8.189,74.552
		C222.399,240.698,203.743,263.958,177.982,266.787z"/>
	<path d="M205.624,142.929c-1.228-11.175-6.801-21.107-15.692-27.966l-4.199-3.239l-3.39,4.078
		c-4.989,6.002-12.013,9.777-19.778,10.63c-7.686,0.845-15.517-1.367-21.613-6.083l-4.194-3.245l-3.396,4.072
		c-7.192,8.625-10.477,19.529-9.249,30.706l7.741,70.476c1.197,10.895,6.563,20.664,15.101,27.502
		c7.245,5.819,16.34,9.024,25.609,9.024c1.5,0,3.021-0.083,4.521-0.248c22.472-2.469,38.747-22.759,36.278-45.232L205.624,142.929z
		 M175.886,247.702c-7.883,0.865-15.88-1.469-22.047-6.423c-6.249-5.004-10.173-12.151-11.049-20.122l-7.741-70.476
		c-0.717-6.53,0.67-12.932,3.937-18.458c7.452,4.243,16.194,6.087,24.781,5.143c8.697-0.956,16.716-4.594,23.081-10.393
		c4.384,4.685,7.125,10.63,7.842,17.157l7.741,70.476C204.237,231.049,192.329,245.896,175.886,247.702z"/>
	<path d="M184.04,147.916c-0.332-3.02-3.05-5.198-6.068-4.867c-3.02,0.332-5.198,3.048-4.867,6.068l7.97,72.563
		c0.31,2.815,2.692,4.9,5.46,4.9c0.201,0,0.403-0.011,0.607-0.033c3.02-0.332,5.198-3.048,4.867-6.068L184.04,147.916z"/>
	<path d="M157.201,150.863c-0.332-3.02-3.045-5.199-6.068-4.867c-3.02,0.332-5.198,3.048-4.867,6.068l5.469,49.786
		c0.31,2.815,2.692,4.9,5.46,4.9c0.201,0,0.403-0.011,0.607-0.033c3.02-0.332,5.198-3.048,4.867-6.068L157.201,150.863z"/>
</g>
<g>
</g>
<g>
</g>
<g>
</g>
<g>
</g>
<g>
</g>
<g>
</g>
<g>
</g>
<g>
</g>
<g>
</g>
<g>
</g>
<g>
</g>
<g>
</g>
<g>
</g>
<g>
</g>
<g>
</g>
</svg>
