<svg xmlns="http://www.w3.org/2000/svg" xmlns:xlink="http://www.w3.org/1999/xlink"
     xmlns:sketch="http://www.bohemiancoding.com/sketch/ns" viewBox="0 0 100 125" version="1.1" x="0px" y="0px"><title>
  info</title>
  <desc>Created with Sketch.</desc>
  <g stroke="none" stroke-width="1" fill-rule="evenodd" sketch:type="MSPage">
    <g sketch:type="MSLayerGroup">
      <path
        d="M50,94 C74.300529,94 94,74.300529 94,50 C94,25.699471 74.300529,6 50,6 C25.699471,6 6,25.699471 6,50 C6,74.300529 25.699471,94 50,94 L50,94 Z M50,86 C69.882251,86 86,69.882251 86,50 C86,30.117749 69.882251,14 50,14 C30.117749,14 14,30.117749 14,50 C14,69.882251 30.117749,86 50,86 L50,86 Z M45,49.0044356 C45,46.2405621 47.2441952,44 50,44 C52.7614237,44 55,46.2303666 55,49.0044356 L55,68.9955644 C55,71.7594379 52.7558048,74 50,74 C47.2385763,74 45,71.7696334 45,68.9955644 L45,49.0044356 L45,49.0044356 Z M44,32 C44,28.6862915 46.6930342,26 50,26 C53.3137085,26 56,28.6930342 56,32 C56,35.3137085 53.3069658,38 50,38 C46.6862915,38 44,35.3069658 44,32 L44,32 Z"
        sketch:type="MSShapeGroup"/>
    </g>
  </g>
</svg>
