<?xml version="1.0" encoding="iso-8859-1"?>
<!-- Generator: Adobe Illustrator 16.0.0, SVG Export Plug-In . SVG Version: 6.00 Build 0)  -->
<!DOCTYPE svg PUBLIC "-//W3C//DTD SVG 1.1//EN" "http://www.w3.org/Graphics/SVG/1.1/DTD/svg11.dtd">
<svg version="1.1" id="Capa_1" xmlns="http://www.w3.org/2000/svg" xmlns:xlink="http://www.w3.org/1999/xlink" x="0px" y="0px"
	 width="469.633px" height="469.633px" viewBox="0 0 469.633 469.633" style="enable-background:new 0 0 469.633 469.633;"
	 xml:space="preserve">
<g>
	<g>
		<path d="M258.165,292.839l-87.152-125.073c0,0-77.513-49.656-104.338-63.287v298.927h336.282L258.165,292.839z"/>
		<polygon points="182.821,84.188 163.464,66.225 138.912,102.151 182.821,124.105 		"/>
		<polygon points="225.302,189.333 250.232,182.146 255.902,144.163 218.585,129.995 205.747,150.311 217.63,191.543 		"/>
		<polygon points="325.166,195.541 325.166,160.769 285.336,169.621 295.662,195.541 		"/>
		<polygon points="376.576,323.443 376.576,284.771 353.621,284.771 338.652,295.855 346.637,323.443 		"/>
		<polygon points="368.873,234.443 369.236,221.826 351.193,214.524 338.652,230.476 350.971,246.673 		"/>
		<polygon points="296.941,263.477 307.58,246.59 294.873,230.02 278.585,225.35 263.091,246.385 279.663,267.998 		"/>
		<path d="M0,0v469.633h469.633V0H0z M432.062,432.062H37.57V37.57h394.493V432.062z"/>
	</g>
</g>
<g>
</g>
<g>
</g>
<g>
</g>
<g>
</g>
<g>
</g>
<g>
</g>
<g>
</g>
<g>
</g>
<g>
</g>
<g>
</g>
<g>
</g>
<g>
</g>
<g>
</g>
<g>
</g>
<g>
</g>
</svg>
