<?xml version="1.0" encoding="iso-8859-1"?>
<!-- Generator: Adobe Illustrator 18.0.0, SVG Export Plug-In . SVG Version: 6.00 Build 0)  -->
<!DOCTYPE svg PUBLIC "-//W3C//DTD SVG 1.1//EN" "http://www.w3.org/Graphics/SVG/1.1/DTD/svg11.dtd">
<svg version="1.1" id="Capa_1" xmlns="http://www.w3.org/2000/svg" xmlns:xlink="http://www.w3.org/1999/xlink" x="0px" y="0px"
	 viewBox="0 0 281.05 281.05" style="enable-background:new 0 0 281.05 281.05;" xml:space="preserve">
<g>
	<path d="M249.089,110.411v-12.87c0-15.237-11.039-27.936-25.538-30.542V51.141c0-3.038-2.462-5.5-5.5-5.5h-24.597V20.335
		c0-11.212-9.089-20.301-20.301-20.301h-65.26c-11.212,0-20.301,9.089-20.301,20.301v25.305H62.997c-3.038,0-5.5,2.462-5.5,5.5V67
		C43,69.607,31.961,82.305,31.961,97.542v12.87C13.903,113.08,0,128.677,0,147.465v72.374c0,17.929,12.661,32.952,29.511,36.607
		c1.426,0.309,2.886,0.447,4.345,0.449L121.95,257v24.015h37.147V257l88.097-0.105c1.459-0.002,2.919-0.139,4.345-0.449
		c16.85-3.656,29.511-18.679,29.511-36.607v-72.374C281.05,128.677,267.146,113.08,249.089,110.411z M31.961,121.583v27.412H11
		v-1.53C11,134.76,20.001,124.121,31.961,121.583z M11,219.839v-59.844h20.961v85.726C20.001,243.182,11,232.544,11,219.839z
		 M107.894,11.035h65.26c5.129,0,9.301,4.172,9.301,9.301v1.434c-2.79-1.445-5.948-2.276-9.301-2.276h-65.26
		c-3.353,0-6.511,0.831-9.301,2.276v-1.434C98.593,15.207,102.765,11.035,107.894,11.035z M98.593,39.794
		c0-5.128,4.172-9.301,9.301-9.301h65.26c5.129,0,9.301,4.172,9.301,9.301v5.847H98.593V39.794z M68.497,56.641h144.054v138.34
		c0,12.203-9.929,22.131-22.132,22.131H90.628c-12.203,0-22.131-9.928-22.131-22.131V56.641z M42.961,246.3V97.542
		c0-9.139,6.157-16.853,14.536-19.253V194.98c0,18.269,14.862,33.131,33.131,33.131h31.322V246.3H42.961z M132.95,270.015v-41.903
		h15.147v41.903H132.95z M238.089,246.3h-78.991v-18.188h31.321c18.269,0,33.132-14.863,33.132-33.131V78.288
		c8.38,2.399,14.538,10.113,14.538,19.253V246.3z M270.05,147.465v1.53h-20.961v-27.412
		C261.048,124.121,270.05,134.76,270.05,147.465z M249.089,245.721v-85.726h20.961v59.844
		C270.05,232.544,261.048,243.182,249.089,245.721z"/>
	<path d="M119.519,180.684h42.011V161.53h19.153v-42.011h-19.153v-19.153h-42.011v19.153h-19.154v42.011h19.154V180.684z
		 M111.364,150.53v-20.011h19.154v-19.153h20.011v19.153h19.153v20.011h-19.153v19.154h-20.011V150.53H111.364z"/>
</g>
<g>
</g>
<g>
</g>
<g>
</g>
<g>
</g>
<g>
</g>
<g>
</g>
<g>
</g>
<g>
</g>
<g>
</g>
<g>
</g>
<g>
</g>
<g>
</g>
<g>
</g>
<g>
</g>
<g>
</g>
</svg>
