<?xml version="1.0" encoding="iso-8859-1"?>
<!-- Generator: Adobe Illustrator 18.0.0, SVG Export Plug-In . SVG Version: 6.00 Build 0)  -->
<!DOCTYPE svg PUBLIC "-//W3C//DTD SVG 1.1//EN" "http://www.w3.org/Graphics/SVG/1.1/DTD/svg11.dtd">
<svg version="1.1" id="Capa_1" xmlns="http://www.w3.org/2000/svg" xmlns:xlink="http://www.w3.org/1999/xlink" x="0px" y="0px"
	 viewBox="0 0 319.746 319.746" style="enable-background:new 0 0 319.746 319.746;" xml:space="preserve">
<g>
	<path d="M173.459,158.908l54.414-38.307V0h-136v120.601l54.414,38.307c-38.214,6.484-67.414,39.806-67.414,79.838
		c0,44.663,36.337,81,81,81s81-36.337,81-81C240.873,198.714,211.674,165.392,173.459,158.908z M159.873,155.02l-37.5-26.4V11h75
		v117.62L159.873,155.02z M216.873,114.892l-8.5,5.984V11h8.5V114.892z M102.873,11h8.5v109.876l-8.5-5.984V11z M159.873,308.746
		c-38.598,0-70-31.402-70-70s31.402-70,70-70s70,31.402,70,70S198.471,308.746,159.873,308.746z"/>
	<path d="M159.873,179.471c-32.685,0-59.275,26.591-59.275,59.275s26.591,59.275,59.275,59.275s59.275-26.591,59.275-59.275
		S192.558,179.471,159.873,179.471z M159.873,287.021c-26.619,0-48.275-21.656-48.275-48.275s21.656-48.275,48.275-48.275
		s48.275,21.656,48.275,48.275S186.492,287.021,159.873,287.021z"/>
</g>
<g>
</g>
<g>
</g>
<g>
</g>
<g>
</g>
<g>
</g>
<g>
</g>
<g>
</g>
<g>
</g>
<g>
</g>
<g>
</g>
<g>
</g>
<g>
</g>
<g>
</g>
<g>
</g>
<g>
</g>
</svg>
