<?xml version="1.0" encoding="iso-8859-1"?>
<!-- Generator: Adobe Illustrator 18.0.0, SVG Export Plug-In . SVG Version: 6.00 Build 0)  -->
<!DOCTYPE svg PUBLIC "-//W3C//DTD SVG 1.1//EN" "http://www.w3.org/Graphics/SVG/1.1/DTD/svg11.dtd">
<svg version="1.1" id="Capa_1" xmlns="http://www.w3.org/2000/svg" xmlns:xlink="http://www.w3.org/1999/xlink" x="0px" y="0px"
	 viewBox="0 0 291.459 291.459" style="enable-background:new 0 0 291.459 291.459;" xml:space="preserve">
<g>
	<path d="M83.982,0v246.008l61.748,45.451l61.747-45.451V0H83.982z M196.477,11v11.643H94.982V11H196.477z M145.73,277.801
		l-50.748-37.354V33.643h101.495v206.804L145.73,277.801z"/>
	<path d="M159.06,111.79l-13.33-27.01l-13.331,27.01l-29.807,4.331l21.569,21.024l-5.092,29.687l26.661-14.016l26.66,14.016
		l-5.092-29.687l21.569-21.025L159.06,111.79z M157.781,146.724l-12.051-6.335l-12.051,6.335l2.302-13.418l-9.75-9.504l13.473-1.958
		l6.026-12.209l6.025,12.209l13.474,1.958l-9.749,9.503L157.781,146.724z"/>
	<path d="M145.73,220.633c-11.304,0-20.5,9.196-20.5,20.499c0,11.304,9.196,20.5,20.5,20.5c11.303,0,20.499-9.196,20.499-20.5
		C166.229,229.829,157.033,220.633,145.73,220.633z M145.73,250.631c-5.238,0-9.5-4.261-9.5-9.5c0-5.238,4.261-9.499,9.5-9.499
		c5.237,0,9.499,4.261,9.499,9.499C155.229,246.37,150.967,250.631,145.73,250.631z"/>
</g>
<g>
</g>
<g>
</g>
<g>
</g>
<g>
</g>
<g>
</g>
<g>
</g>
<g>
</g>
<g>
</g>
<g>
</g>
<g>
</g>
<g>
</g>
<g>
</g>
<g>
</g>
<g>
</g>
<g>
</g>
</svg>
