<?xml version="1.0" encoding="iso-8859-1"?>
<!-- Generator: Adobe Illustrator 18.0.0, SVG Export Plug-In . SVG Version: 6.00 Build 0)  -->
<!DOCTYPE svg PUBLIC "-//W3C//DTD SVG 1.1//EN" "http://www.w3.org/Graphics/SVG/1.1/DTD/svg11.dtd">
<svg version="1.1" id="Capa_1" xmlns="http://www.w3.org/2000/svg" xmlns:xlink="http://www.w3.org/1999/xlink" x="0px" y="0px"
	 viewBox="0 0 339.957 339.957" style="enable-background:new 0 0 339.957 339.957;" xml:space="preserve">
<g>
	<circle cx="120.816" cy="115.969" r="5"/>
	<circle cx="102.316" cy="128.969" r="5"/>
	<circle cx="94.816" cy="109.469" r="5"/>
	<path d="M314.007,141.706c-5.124-4.451-9.981-7.36-14.678-10.173c-10.642-6.373-22.703-13.597-43.287-42.775l-2.2-3.119
		l-22.917,6.02c-33.74-33.274-88.152-33.274-121.892,0l-22.917-6.02l-2.2,3.119c-20.583,29.179-32.645,36.402-43.286,42.775
		c-4.697,2.813-9.554,5.722-14.678,10.173c-28.25,24.54-34.254,66.537-13.966,97.689c11.706,17.973,29.725,29.799,50.737,33.297
		c0.57,0.095,2.377,0.265,2.547,0.28c2.139,0.184,4.275,0.276,6.406,0.276c21.44,0,42.164-9.244,56.494-25.479
		c23.737-26.894,25.197-66.244,3.895-94.676l14.156-51.665l-24.488-6.433c27.911-23.063,68.586-23.063,96.497,0l-24.489,6.433
		l14.156,51.665c-21.302,28.432-19.842,67.783,3.896,94.676c14.335,16.242,35.173,25.486,56.814,25.486
		c2.344,0,4.697-0.108,7.052-0.328c0.28-0.026,2.605-0.41,3.115-0.506c20.355-3.808,37.783-15.492,49.202-33.025
		C348.261,208.243,342.257,166.246,314.007,141.706z M80.776,157.114c19.178,3.831,33.04,20.705,33.04,40.354
		c0,22.702-18.469,41.171-41.166,41.171c-1.332-0.001-5.59-0.164-9.255-0.897c-0.055-0.011-0.108-0.015-0.163-0.024
		c-8.214-2.193-15.5-6.94-20.856-13.695c-13.622-17.181-10.728-42.24,6.453-55.862l0.244-0.205c0.031-0.027,3.184-2.78,9.059-5.487
		C63.003,160.225,70.728,157.598,80.776,157.114z M119.921,240.489c-10,11.331-23.646,18.672-38.29,20.977
		c0.776-2.181,1.122-4.517,0.977-6.861c-0.125-2.004-0.596-3.92-1.352-5.688c24.683-4.118,43.561-25.614,43.561-51.448
		c0-13.738-5.357-26.401-14.236-35.817c3.038,1.022,6.103,2.211,9.189,3.568c0.967,0.425,1.991,0.64,3.044,0.64l0,0
		c1.409,0,2.738-0.412,3.887-1.107C141.181,188.462,138.806,219.093,119.921,240.489z M120.511,153.598
		c-12.493-5.025-24.746-7.57-36.475-7.57c-25.616,0-40.388,12.075-42.149,13.6c-21.837,17.409-25.493,49.333-8.13,71.229
		c8.137,10.263,19.759,16.916,32.726,18.733c2.802,0.392,4.966,2.786,5.146,5.693c0.108,1.752-0.494,3.421-1.697,4.7
		c-1.413,1.503-3.387,2.195-5.402,1.857c-17.937-2.986-33.324-13.09-43.327-28.45C3.894,206.816,9.037,170.969,33.164,150.01
		c4.393-3.816,8.63-6.354,13.116-9.041c11.181-6.695,23.801-14.253,44.401-42.759l41.991,11.031
		C132.672,109.242,120.729,152.971,120.511,153.598z M220.037,240.489c-18.886-21.396-21.261-52.028-6.78-75.738
		c1.149,0.696,2.478,1.108,3.887,1.108c1.053,0,2.077-0.215,3.046-0.641c3.085-1.356,6.149-2.545,9.187-3.567
		c-8.879,9.415-14.236,22.079-14.236,35.817c0,25.833,18.876,47.328,43.56,51.447c-0.756,1.768-1.227,3.685-1.351,5.688
		c-0.145,2.334,0.198,4.657,0.966,6.829C243.623,259.088,229.99,251.766,220.037,240.489z M276.721,237.719
		c-0.053,0.009-0.105,0.013-0.158,0.023c-4.38,0.876-9.211,0.897-9.251,0.897c-22.701,0-41.17-18.469-41.17-41.171
		c0-19.65,13.864-36.526,33.044-40.355c20.267,0.976,31.581,10.738,31.678,10.823l0.265,0.225
		c8.323,6.599,13.578,16.044,14.796,26.595s-1.744,20.945-8.344,29.268C292.224,230.779,284.936,235.527,276.721,237.719z
		 M318.755,233.391c-10.003,15.36-25.39,25.464-43.328,28.451c-2.006,0.334-3.988-0.354-5.401-1.857
		c-1.203-1.279-1.806-2.949-1.697-4.701c0.18-2.907,2.344-5.302,5.146-5.693c12.966-1.817,24.588-8.471,32.725-18.733
		c8.424-10.625,12.207-23.895,10.651-37.364c-1.551-13.424-8.218-25.445-18.781-33.865c-1.761-1.524-16.533-13.6-42.149-13.6
		c-11.729,0-23.982,2.545-36.474,7.57c-0.176-0.544-12.162-44.356-12.162-44.356l41.991-11.031
		c20.6,28.506,33.22,36.063,44.401,42.759c4.486,2.687,8.724,5.225,13.116,9.041C330.921,170.969,336.063,206.816,318.755,233.391z"
		/>
	<circle cx="219.141" cy="115.969" r="5"/>
	<circle cx="237.641" cy="128.969" r="5"/>
	<circle cx="245.141" cy="109.469" r="5"/>
</g>
<g>
</g>
<g>
</g>
<g>
</g>
<g>
</g>
<g>
</g>
<g>
</g>
<g>
</g>
<g>
</g>
<g>
</g>
<g>
</g>
<g>
</g>
<g>
</g>
<g>
</g>
<g>
</g>
<g>
</g>
</svg>
