<?xml version="1.0" encoding="iso-8859-1"?>
<!-- Generator: Adobe Illustrator 18.0.0, SVG Export Plug-In . SVG Version: 6.00 Build 0)  -->
<!DOCTYPE svg PUBLIC "-//W3C//DTD SVG 1.1//EN" "http://www.w3.org/Graphics/SVG/1.1/DTD/svg11.dtd">
<svg version="1.1" id="Capa_1" xmlns="http://www.w3.org/2000/svg" xmlns:xlink="http://www.w3.org/1999/xlink" x="0px" y="0px"
	 viewBox="0 0 301.484 301.484" style="enable-background:new 0 0 301.484 301.484;" xml:space="preserve">
<path d="M301.484,13.245H200.871v54.413h9.194l4.638,49.608h-49.858v10.868h-8.603V123.5c0-3.038-2.463-5.5-5.5-5.5
	s-5.5,2.462-5.5,5.5v4.634h-8.597v-10.868H86.786l4.63-49.608h9.196V13.245H0v54.413h9.195l15.161,162.228H74.5v27.678h-5.044
	v30.676h60.104v-30.676h-5.044v-27.678h12.13v-10.133h8.597v5.237c0,3.038,2.463,5.5,5.5,5.5s5.5-2.462,5.5-5.5v-5.237h8.603v10.133
	h12.123v27.678h-5.044v30.676h60.104v-30.676h-5.044v-27.678h50.151l15.15-162.228h9.198V13.245z M211.871,24.245h78.613v32.413
	h-78.613V24.245z M175.845,136.917V128.3h99.729l-0.805,8.617H175.845z M273.742,147.917l-4.777,51.153h-93.12v-51.153H273.742z
	 M164.845,139.134v8.817h-28.199v-8.817H164.845z M136.646,188.936v-29.985h8.597v29.985H136.646z M156.242,158.951h8.603v29.985
	h-8.603V158.951z M27.743,147.917h97.902v51.153H32.523L27.743,147.917z M26.715,136.917L25.91,128.3h99.735v8.617H26.715z
	 M11,24.245h78.612v32.413H11V24.245z M80.368,67.658L75.735,117.3H24.882l-4.639-49.642H80.368z M118.56,277.24H80.456v-8.676
	h38.104V277.24z M113.516,257.564H85.5v-27.678h28.016V257.564z M34.375,218.886l-0.824-8.816h92.094v8.816H34.375z
	 M136.646,208.753v-8.817h28.199v8.817H136.646z M221.028,277.24h-38.104v-8.676h38.104V277.24z M215.984,257.564h-28.017v-27.678
	h28.017V257.564z M175.845,218.886v-8.816h92.093l-0.823,8.816H175.845z M276.601,117.3h-50.844l-4.642-49.642h60.123L276.601,117.3
	z"/>
<g>
</g>
<g>
</g>
<g>
</g>
<g>
</g>
<g>
</g>
<g>
</g>
<g>
</g>
<g>
</g>
<g>
</g>
<g>
</g>
<g>
</g>
<g>
</g>
<g>
</g>
<g>
</g>
<g>
</g>
</svg>
