<svg xmlns="http://www.w3.org/2000/svg" xmlns:xlink="http://www.w3.org/1999/xlink" version="1.1" x="0px" y="0px" viewBox="0 0 48 60" enable-background="new 0 0 48 48" xml:space="preserve"><g><path stroke="#000000" stroke-width="2" stroke-miterlimit="10" d="M16.4,8.8c2-2,5.2-2,7.2,0"/><path stroke="#000000" stroke-width="2" stroke-miterlimit="10" d="M14.2,6.7c3.2-3.2,8.3-3.2,11.5,0"/><path stroke="#000000" stroke-width="2" stroke-miterlimit="10" d="M11.9,4.3c4.5-4.5,11.7-4.5,16.1,0"/><path stroke="#000000" stroke-width="2" stroke-miterlimit="10" d="M33.5,47H18.6c-1.5,0-2.7-1.2-2.7-2.7V21   c0-1.5,1.2-2.7,2.7-2.7h14.9c1.5,0,2.7,1.2,2.7,2.7v23.4C36.1,45.8,34.9,47,33.5,47z"/><rect x="19" y="22.2" stroke="#000000" stroke-width="2" stroke-miterlimit="10" width="13.9" height="9.7"/><g><line stroke="#000000" stroke-width="2" stroke-miterlimit="10" x1="19" y1="35.9" x2="21.9" y2="35.9"/><line stroke="#000000" stroke-width="2" stroke-miterlimit="10" x1="24.6" y1="35.9" x2="27.4" y2="35.9"/><line stroke="#000000" stroke-width="2" stroke-miterlimit="10" x1="30.1" y1="35.9" x2="33" y2="35.9"/></g><g><line stroke="#000000" stroke-width="2" stroke-miterlimit="10" x1="19" y1="39.3" x2="21.9" y2="39.3"/><line stroke="#000000" stroke-width="2" stroke-miterlimit="10" x1="24.6" y1="39.3" x2="27.4" y2="39.3"/><line stroke="#000000" stroke-width="2" stroke-miterlimit="10" x1="30.1" y1="39.3" x2="33" y2="39.3"/></g><g><line stroke="#000000" stroke-width="2" stroke-miterlimit="10" x1="19" y1="42.8" x2="21.9" y2="42.8"/><line stroke="#000000" stroke-width="2" stroke-miterlimit="10" x1="24.6" y1="42.8" x2="27.4" y2="42.8"/><line stroke="#000000" stroke-width="2" stroke-miterlimit="10" x1="30.1" y1="42.8" x2="33" y2="42.8"/></g><line stroke="#000000" stroke-width="2" stroke-miterlimit="10" x1="20" y1="10.3" x2="20" y2="18.3"/></g></svg>
