<?xml version="1.0" encoding="iso-8859-1"?>
<!-- Generator: Adobe Illustrator 18.1.1, SVG Export Plug-In . SVG Version: 6.00 Build 0)  -->
<svg version="1.1" id="Capa_1" xmlns="http://www.w3.org/2000/svg" xmlns:xlink="http://www.w3.org/1999/xlink" x="0px" y="0px"
	 viewBox="0 0 612 612" style="enable-background:new 0 0 612 612;" xml:space="preserve">
<path d="M595.924,3.752c-53.648,12.516-102.593,39.723-141.547,78.677L352.019,184.787l-88.399-2.89l-78.687,78.687l59.732,31.555
	l-73.355,73.355l-70.142-21.147L60.89,384.627l59.732,31.555l-51.973,51.973l-37.596-8.574L0,490.634L121.366,612l31.053-31.053
	l-8.574-37.598l51.973-51.973l31.555,59.734l40.281-40.281l-21.147-70.14l73.356-73.356l31.555,59.734l78.688-78.687l-2.89-88.399
	l102.358-102.358c38.954-38.952,66.159-87.899,78.679-141.547L612,0L595.924,3.752z M219.108,255.428l52.732-52.732l60.297,1.97
	l-72.284,72.284L219.108,255.428z M95.065,379.474l11.933-11.933l47.842,14.423l-19.033,19.033L95.065,379.474z M37.596,499.208
	l-8.573-8.574l8.522-8.524l13.964,3.185L37.596,499.208z M121.366,582.976l-8.574-8.574l13.912-13.912l3.185,13.964L121.366,582.976
	z M232.526,516.931l-21.524-40.743l19.033-19.033l14.423,47.844L232.526,516.931z M356.572,392.888l-21.524-40.743l72.284-72.284
	l1.97,60.297L356.572,392.888z M98.281,559.891l-15.832-15.83l24.404-24.404l-14.509-14.511l-24.406,24.404l-15.83-15.83
	L442.59,123.236l46.172,46.172L98.281,559.891z M503.273,154.897l-46.172-46.172l10.554-10.554l46.172,46.172L503.273,154.897z
	 M527.87,129.364L482.634,84.13c29.376-25.611,63.814-44.667,101.141-55.907C572.534,65.553,553.481,99.99,527.87,129.364z
	 M379.222,218.299l14.511,14.513l-94.388,94.374l-14.511-14.513L379.222,218.299z M204.465,393.038l14.511,14.513l-46.282,46.276
	l-14.511-14.513L204.465,393.038z"/>
<g>
</g>
<g>
</g>
<g>
</g>
<g>
</g>
<g>
</g>
<g>
</g>
<g>
</g>
<g>
</g>
<g>
</g>
<g>
</g>
<g>
</g>
<g>
</g>
<g>
</g>
<g>
</g>
<g>
</g>
</svg>
