<svg xmlns="http://www.w3.org/2000/svg" xmlns:xlink="http://www.w3.org/1999/xlink" version="1.1" x="0px" y="0px" viewBox="0 0 100 125" style="enable-background:new 0 0 100 100;" xml:space="preserve"><g><path d="M86.3,38.1h-1.7c-0.5-1.4-1-2.8-1.7-4.1l1.2-1.2c2.7-2.7,2.7-7.1,0-9.8L77,15.9c-1.3-1.3-3-2-4.9-2c-1.8,0-3.6,0.7-4.9,2   L66,17.1c-1.3-0.6-2.7-1.2-4.1-1.7v-1.7c0-3.8-3.1-6.9-6.9-6.9H45c-3.8,0-6.9,3.1-6.9,6.9v1.7c-1.4,0.5-2.8,1.1-4.1,1.7l-1.2-1.2   c-1.3-1.3-3-2-4.9-2c-1.8,0-3.6,0.7-4.9,2L15.9,23c-2.7,2.7-2.7,7.1,0,9.8l1.2,1.2c-0.7,1.3-1.2,2.7-1.7,4.1h-1.7   c-3.8,0-6.9,3.1-6.9,6.9V55c0,3.8,3.1,6.9,6.9,6.9h1.7c0.5,1.4,1,2.8,1.7,4.1l-1.2,1.2c-2.7,2.7-2.7,7.1,0,9.8l7.1,7.1   c1.3,1.3,3,2,4.9,2c1.8,0,3.6-0.7,4.9-2l1.2-1.2c1.3,0.6,2.7,1.2,4.1,1.7v1.7c0,3.8,3.1,6.9,6.9,6.9H55c3.8,0,6.9-3.1,6.9-6.9v-1.7   c1.4-0.5,2.8-1.1,4.1-1.7l1.2,1.2c1.3,1.3,3,2,4.9,2c1.8,0,3.6-0.7,4.9-2l7.1-7.1c2.7-2.7,2.7-7.1,0-9.8L82.9,66   c0.7-1.3,1.2-2.7,1.7-4.1h1.7c3.8,0,6.9-3.1,6.9-6.9V45C93.3,41.2,90.2,38.1,86.3,38.1z M87.3,55c0,0.5-0.4,0.9-0.9,0.9h-6.2   l-0.6,2.2c-0.7,2.4-1.6,4.8-2.9,7l-1.1,2l4.4,4.4c0.4,0.4,0.4,0.9,0,1.3l-7.1,7.1c-0.2,0.2-0.5,0.3-0.6,0.3s-0.4,0-0.6-0.3   l-4.4-4.4l-2,1.1c-2.2,1.2-4.5,2.2-7,2.9l-2.2,0.6v6.2c0,0.5-0.4,0.9-0.9,0.9H45c-0.5,0-0.9-0.4-0.9-0.9v-6.2l-2.2-0.6   c-2.4-0.7-4.8-1.6-7-2.9l-2-1.1l-4.4,4.4c-0.2,0.2-0.5,0.3-0.6,0.3s-0.4,0-0.6-0.3l-7.1-7.1c-0.4-0.4-0.4-0.9,0-1.3l4.4-4.4l-1.1-2   c-1.2-2.2-2.2-4.5-2.9-7l-0.6-2.2h-6.2c-0.5,0-0.9-0.4-0.9-0.9V45c0-0.5,0.4-0.9,0.9-0.9h6.2l0.6-2.2c0.7-2.4,1.6-4.8,2.9-7l1.1-2   l-4.4-4.4c-0.4-0.4-0.4-0.9,0-1.3l7.1-7.1c0.2-0.2,0.5-0.3,0.6-0.3s0.4,0,0.6,0.3l4.4,4.4l2-1.1c2.2-1.2,4.5-2.2,7-2.9l2.2-0.6   v-6.2c0-0.5,0.4-0.9,0.9-0.9H55c0.5,0,0.9,0.4,0.9,0.9v6.2l2.2,0.6c2.4,0.7,4.8,1.6,7,2.9l2,1.1l4.4-4.4c0.2-0.2,0.5-0.3,0.6-0.3   s0.4,0,0.6,0.3l7.1,7.1c0.4,0.4,0.4,0.9,0,1.3l-4.4,4.4l1.1,2c1.2,2.2,2.2,4.5,2.9,7l0.6,2.2h6.2c0.5,0,0.9,0.4,0.9,0.9V55z"/><path d="M50,32c-9.9,0-18,8.1-18,18s8.1,18,18,18s18-8.1,18-18S59.9,32,50,32z M50,62c-6.6,0-12-5.4-12-12s5.4-12,12-12   s12,5.4,12,12S56.6,62,50,62z"/></g></svg>
