<svg xmlns="http://www.w3.org/2000/svg" xmlns:xlink="http://www.w3.org/1999/xlink" version="1.1" x="0px" y="0px" viewBox="0 0 100 125" enable-background="new 0 0 100 100" xml:space="preserve"><g><path d="M49.8,83.7l-0.5,3l-2.8-1.3l-5.8-2.6L38.5,82l0.8-2.1l1.8-4.7c-0.6-0.3-1.1-0.8-1.5-1.2   c-0.1-0.1-0.1-0.1-0.2-0.2c-3.2,2.2-6,3.7-6.2,3.8l-1.9,1l-1.2-1.8l-4.1-5.9l-1.7-2.5l2.8-1.1c2.9-1.1,6.4-4,8.4-5.9l-4.5-4.8   c-7,3.6-14.7,9.7-15.9,19.5c-0.2,1.8,0.5,3.5,2,4.5c4.2,2.9,14.8,8.5,35.4,8.5h0c0.8,0,1.5,0,2.2,0l-4-11.2L49.8,83.7z"/><path d="M33.8,25l1.1,0c0,0,0,0,0,0.1h35c0,0,0,0,0,0l0.9,0l2,8.3c0,0,2.5-4.8,1.2-13.5C72.8,11.4,70.4,5,52.7,5   s-21.1,6.4-22.4,14.9c-1.3,8.6,1.4,13.5,1.4,13.5L33.8,25z"/><path d="M36.7,28.4l-2.3,8.7c2.1,8.4,9.4,14.6,18.1,14.6c8.5,0,15.7-5.9,18-14.1L68,28.4H36.7z"/><circle cx="74.1" cy="82.7" r="7.2"/><path d="M90,76.2c-2.2-17.6-25.1-23.3-27.8-23.9l0,0c-5.6,4.4-13.5,4.4-19.2,0v0c-0.3,0.1-0.8,0.2-1.6,0.4L52.3,64   l0.9,0.9l12.6,13.2c1.6-2.9,4.8-5,8.4-5c5.3,0,9.6,4.3,9.6,9.6c0,0.2,0,0.4,0,0.5c1.9-0.9,3.4-1.8,4.4-2.6   C89.4,79.7,90.2,78,90,76.2z"/><path d="M64.7,80.3l-13.4-14l-0.9-0.9L24.2,37.7L23,38.8L11.2,26.4L10,27.5L21.8,40l-1.6,1.5l18.8,19.7   c0,0-6.2,6.1-11,8l4.1,5.9c0,0,4.2-2.2,8-5.1c0.3,0.7,0.7,1.4,1.2,2c0.7,0.7,1.6,1.3,2.9,1.6l-2.7,6.9l5.8,2.6l2-11l3.1,3.2   l6.5,17.9l1.8,1.9l6.4-6.1c-1.6-1.7-2.6-4-2.6-6.5C64.5,81.7,64.6,80.9,64.7,80.3z M45.1,71.4l-0.3,0.7c-2.3-0.4-3.1-2-3.5-3.1   c0.3-0.2,0.6-0.5,0.8-0.7v0c0,0,0.3-0.2,0.7-0.2c0.4,0,1,0.2,1.6,0.9C45.8,70.3,45.1,71.4,45.1,71.4z"/></g></svg>
