<?xml version="1.0" encoding="iso-8859-1"?>
<!-- Generator: Adobe Illustrator 16.0.0, SVG Export Plug-In . SVG Version: 6.00 Build 0)  -->
<!DOCTYPE svg PUBLIC "-//W3C//DTD SVG 1.1//EN" "http://www.w3.org/Graphics/SVG/1.1/DTD/svg11.dtd">
<svg version="1.1" id="Capa_1" xmlns="http://www.w3.org/2000/svg" xmlns:xlink="http://www.w3.org/1999/xlink" x="0px" y="0px"
	 width="463.6px" height="463.6px" viewBox="0 0 463.6 463.6" style="enable-background:new 0 0 463.6 463.6;" xml:space="preserve"
	>
<g>
	<g>
		<g>
			<polygon points="427.656,180.083 349.85,172.02 318.137,100.515 286.427,172.02 208.622,180.083 266.828,232.339 
				250.453,308.827 318.138,269.618 385.824,308.827 369.45,232.339 			"/>
		</g>
		<g>
			<path d="M172.935,252.72C150.398,150.6,198.994,49.364,285.697,0.687c-22.201-1.716-45.022-0.25-67.893,4.796
				C92.817,33.068,13.855,156.752,41.439,281.739c27.585,124.988,151.269,203.95,276.257,176.365
				c22.867-5.047,44.188-13.322,63.604-24.224C282.162,426.22,195.472,354.839,172.935,252.72z"/>
		</g>
	</g>
</g>
<g>
</g>
<g>
</g>
<g>
</g>
<g>
</g>
<g>
</g>
<g>
</g>
<g>
</g>
<g>
</g>
<g>
</g>
<g>
</g>
<g>
</g>
<g>
</g>
<g>
</g>
<g>
</g>
<g>
</g>
</svg>
