<svg xmlns="http://www.w3.org/2000/svg" xmlns:xlink="http://www.w3.org/1999/xlink" version="1.1" x="0px" y="0px" viewBox="0 0 48 60" enable-background="new 0 0 48 48" xml:space="preserve"><g><path d="M34.621,27.156H7.496C3.362,27.156,0,30.455,0,34.51c0,4.057,3.362,7.355,7.496,7.355h27.125   c4.133,0,7.496-3.299,7.496-7.355C42.117,30.455,38.754,27.156,34.621,27.156z M7.759,36.777c-1.253,0-2.268-1.016-2.268-2.268   c0-1.25,1.015-2.266,2.268-2.266c1.251,0,2.266,1.016,2.266,2.266C10.024,35.762,9.01,36.777,7.759,36.777z M21.057,36.777   c-1.25,0-2.266-1.016-2.266-2.268c0-1.25,1.016-2.266,2.266-2.266c1.254,0,2.269,1.016,2.269,2.266   C23.325,35.762,22.311,36.777,21.057,36.777z M34.354,36.777c-1.25,0-2.266-1.016-2.266-2.268c0-1.25,1.016-2.266,2.266-2.266   c1.254,0,2.27,1.016,2.27,2.266C36.623,35.762,35.607,36.777,34.354,36.777z"/><path d="M46.426,9.455H29.461l-1.003-3.138c-0.035-0.108-0.137-0.183-0.25-0.183H14.021c-0.119,0-0.223,0.079-0.253,0.194   l-3.101,11.532C9.184,17.903,7.98,18.414,7.09,19.38c-1.99,2.161-1.716,5.808-1.703,5.962c0.011,0.137,0.125,0.241,0.261,0.241   h30.836c0.145,0,0.263-0.117,0.263-0.263c0-5.478-3.573-6.64-4.396-6.834l-1.882-5.884h15.957c0.869,0,1.574-0.705,1.574-1.574   S47.295,9.455,46.426,9.455z"/></g></svg>
