<svg xmlns="http://www.w3.org/2000/svg" xmlns:xlink="http://www.w3.org/1999/xlink" version="1.1" x="0px" y="0px" viewBox="0 0 100 125" enable-background="new 0 0 100 100" xml:space="preserve"><g><path fill="none" d="M49.937,20.065c-16.481,0-30,13.39-30,30c0,16.48,13.519,29.997,30,29.997   c16.608,0,29.999-13.517,29.999-29.997C79.936,33.455,66.545,20.065,49.937,20.065z M49.937,63.968   c-7.597,0-13.904-6.308-13.904-13.902c0-7.726,6.308-13.907,13.904-13.907c7.724,0,13.903,6.181,13.903,13.907   C63.84,57.66,57.66,63.968,49.937,63.968z"/><path d="M49.937,5C25.086,5,5,25.214,5,50.065C5,74.916,25.087,95,49.937,95C74.915,95,95,74.916,95,50.065   C95,25.214,74.915,5,49.937,5z M49.937,80.062c-16.481,0-30-13.517-30-29.997c0-16.61,13.519-30,30-30   c16.608,0,29.999,13.389,29.999,30C79.936,66.546,66.545,80.062,49.937,80.062z"/><path d="M49.937,36.159c-7.597,0-13.904,6.181-13.904,13.907c0,7.595,6.308,13.902,13.904,13.902   c7.724,0,13.903-6.308,13.903-13.902C63.84,42.34,57.66,36.159,49.937,36.159z"/></g></svg>
