<?xml version="1.0" encoding="iso-8859-1"?>
<!-- Generator: Adobe Illustrator 18.0.0, SVG Export Plug-In . SVG Version: 6.00 Build 0)  -->
<!DOCTYPE svg PUBLIC "-//W3C//DTD SVG 1.1//EN" "http://www.w3.org/Graphics/SVG/1.1/DTD/svg11.dtd">
<svg version="1.1" id="Capa_1" xmlns="http://www.w3.org/2000/svg" xmlns:xlink="http://www.w3.org/1999/xlink" x="0px" y="0px"
	 viewBox="0 0 372.166 372.166" style="enable-background:new 0 0 372.166 372.166;" xml:space="preserve">
<g>
	<path d="M163.583,97.152h-3.641c-0.569-28.537-5.443-56.891-14.508-84.368l-2.609-7.909C141.863,1.959,139.154,0,136.083,0
		c-3.071,0-5.781,1.959-6.742,4.875l-2.609,7.909c-9.065,27.477-13.938,55.832-14.508,84.368h-3.641v48.075l-11.749,30.56v179.012
		h78.497V175.787l-11.748-30.56V97.152z M152.583,108.312v32.676h-33v-32.676H152.583z M117.769,151.988h36.628l7.427,19.32h-51.483
		L117.769,151.988z M136.083,19.621c7.997,25.302,12.312,51.338,12.856,77.532h-25.711
		C123.771,70.958,128.086,44.923,136.083,19.621z M107.834,343.799V182.308h56.497v161.491H107.834z"/>
	<rect x="96.834" y="361.166" width="78.497" height="11"/>
	<rect x="216.834" y="361.166" width="58.497" height="11"/>
	<path d="M246.083,232.652c-16.127,0-29.248,13.121-29.248,29.248v94.044h58.497V261.9
		C275.331,245.773,262.21,232.652,246.083,232.652z M246.083,243.652c8.146,0,15.058,5.366,17.398,12.748h-34.795
		C231.025,249.019,237.937,243.652,246.083,243.652z M227.834,344.945V267.4h36.497v77.544H227.834z"/>
</g>
<g>
</g>
<g>
</g>
<g>
</g>
<g>
</g>
<g>
</g>
<g>
</g>
<g>
</g>
<g>
</g>
<g>
</g>
<g>
</g>
<g>
</g>
<g>
</g>
<g>
</g>
<g>
</g>
<g>
</g>
</svg>
