<?xml version="1.0" encoding="iso-8859-1"?>
<!-- Generator: Adobe Illustrator 18.0.0, SVG Export Plug-In . SVG Version: 6.00 Build 0)  -->
<!DOCTYPE svg PUBLIC "-//W3C//DTD SVG 1.1//EN" "http://www.w3.org/Graphics/SVG/1.1/DTD/svg11.dtd">
<svg version="1.1" id="Capa_1" xmlns="http://www.w3.org/2000/svg" xmlns:xlink="http://www.w3.org/1999/xlink" x="0px" y="0px"
	 viewBox="0 0 298.914 298.914" style="enable-background:new 0 0 298.914 298.914;" xml:space="preserve">
<path d="M205.091,90.118c24.506,0,44.443-19.937,44.443-44.443c0-24.506-19.938-44.443-44.443-44.443
	c-13.543,0-25.682,6.096-33.84,15.68C169.36,7.287,160.866,0,150.695,0c-11.554,0-20.954,9.4-20.954,20.955v64.348h-9.272v14.887
	c-39.641,2.643-71.089,35.716-71.089,76.015v46.504h11v-46.504c0-29.595,19.826-54.632,46.888-62.568
	c-19.791,13.778-32.778,36.679-32.778,62.568v17.752h-4.153v11h4.153v17.752c0,42.02,34.186,76.206,76.205,76.206
	c42.021,0,76.206-34.186,76.206-76.206v-17.752h4.153v-11h-4.153v-17.752c0-31.284-18.955-58.214-45.979-69.939V85.303h-9.272
	V74.899C179.803,84.216,191.767,90.118,205.091,90.118z M205.091,12.231c18.44,0,33.443,15.002,33.443,33.443
	c0,18.44-15.003,33.443-33.443,33.443c-16.567,0-30.351-12.111-32.982-27.943h8.323v-11h-8.323
	C174.74,24.343,188.524,12.231,205.091,12.231z M215.901,222.708c0,35.955-29.251,65.206-65.206,65.206
	c-35.954,0-65.205-29.251-65.205-65.206v-17.752h130.411V222.708z M215.901,176.204v17.752H85.49v-17.752
	c0-35.955,29.251-65.206,65.205-65.206C186.65,110.999,215.901,140.25,215.901,176.204z M150.695,99.999
	c-6.64,0-13.082,0.858-19.227,2.461v-6.157h38.454v6.157C163.778,100.857,157.335,99.999,150.695,99.999z M160.65,85.303h-19.909
	V20.955c0-5.489,4.466-9.955,9.954-9.955c5.489,0,9.955,4.466,9.955,9.955V85.303z"/>
<g>
</g>
<g>
</g>
<g>
</g>
<g>
</g>
<g>
</g>
<g>
</g>
<g>
</g>
<g>
</g>
<g>
</g>
<g>
</g>
<g>
</g>
<g>
</g>
<g>
</g>
<g>
</g>
<g>
</g>
</svg>
